<svg xmlns="http://www.w3.org/2000/svg"
  viewBox="0 0 300 130"
  stroke="#03862B"
  stroke-width="4"
  fill="none"
  stroke-linecap="round"
  stroke-linejoin="round"
  fill-rule="evenodd"
  
>

  <path d="M 26 72 l 4.5 -17 
    l 50 -50
    a 6.5 6.5 0 1 1 13 13
    l -50 50
    l -17 4.5
    z" />
  
  <path d="M 60 15 h -56 
    a 2 2 0 0 0 -2 2
    v 79
    a 2 2 0 0 0 2 2
    h 40 
    l 20 20
    v -20
    h 15
    a 2 2 0 0 0 2 -2 
    v -55"/>
  
  <g
    fill="#03862B"
    stroke-width="1"
    transform="translate(92 40)"
               
  >
    <path d="M 3.281 43.125 L 3.281 33.106 A 16.072 16.072 0 0 1 2.208 32.918 Q 0 32.447 0 31.582 A 1.331 1.331 0 0 1 0.13 31.034 Q 0.325 30.603 0.811 30.111 A 6.782 6.782 0 0 1 1.113 29.824 Q 2.227 28.828 3.34 27.774 A 27.838 27.838 0 0 0 3.108 24.291 Q 2.886 22.537 2.453 20.612 A 47.416 47.416 0 0 0 2.285 19.893 A 311.351 311.351 0 0 1 1.794 17.833 Q 1.326 15.835 1.014 14.359 A 79.402 79.402 0 0 1 0.762 13.125 A 26.997 26.997 0 0 1 0.412 10.843 A 19.802 19.802 0 0 1 0.293 8.731 A 10.038 10.038 0 0 1 0.322 7.929 Q 0.421 6.7 0.853 6.263 A 0.908 0.908 0 0 1 0.908 6.211 Q 1.523 5.684 2.695 5.684 A 6.713 6.713 0 0 1 3.169 5.699 Q 3.906 5.752 4.19 5.982 A 0.603 0.603 0 0 1 4.219 6.006 A 1.564 1.564 0 0 1 4.687 6.797 A 5.163 5.163 0 0 1 4.817 7.565 A 5.932 5.932 0 0 1 4.834 7.793 A 3.356 3.356 0 0 0 5.028 8.76 A 3.176 3.176 0 0 0 5.039 8.789 A 1.348 1.348 0 0 0 5.945 9.768 Q 6.326 9.903 6.855 9.903 A 56.056 56.056 0 0 0 14.707 9.229 Q 18.633 8.613 22.5 7.969 A 188.488 188.488 0 0 1 26.054 7.409 Q 31.012 6.68 33.369 6.68 A 91.085 91.085 0 0 1 35.2 6.697 Q 36.808 6.73 37.957 6.823 A 24.401 24.401 0 0 1 38.32 6.856 A 15.888 15.888 0 0 0 38.391 7.743 Q 38.453 8.315 38.555 8.789 A 10.572 10.572 0 0 1 38.647 9.273 Q 38.73 9.772 38.73 10.134 A 3.457 3.457 0 0 1 38.73 10.137 A 0.651 0.651 0 0 1 38.339 10.772 Q 37.915 10.975 37.03 10.872 A 7.012 7.012 0 0 1 36.797 10.84 A 426.245 426.245 0 0 0 27.969 11.245 Q 6.152 12.493 6.152 15.41 A 46.694 46.694 0 0 0 6.227 18.114 Q 6.35 20.241 6.68 21.944 Q 7.102 24.123 7.355 25.009 A 4.888 4.888 0 0 0 7.471 25.371 A 2.632 2.632 0 0 0 7.581 25.628 Q 7.806 26.074 8.086 26.074 A 40.111 40.111 0 0 0 14.854 25.488 Q 18.281 24.903 21.709 24.229 Q 25.137 23.555 28.594 22.969 A 40.627 40.627 0 0 1 35.391 22.383 A 0.029 0.029 0 0 1 35.413 22.404 Q 35.442 22.465 35.448 22.703 A 5.237 5.237 0 0 1 35.449 22.822 A 7.64 7.64 0 0 1 35.435 23.284 A 10.136 10.136 0 0 1 35.391 23.789 Q 35.239 25.003 35.349 25.169 A 0.05 0.05 0 0 0 35.391 25.196 A 10.495 10.495 0 0 1 33.763 25.905 Q 31.112 26.835 26.25 27.481 Q 23.379 27.891 20.391 28.242 Q 17.402 28.594 14.883 29.004 Q 10.176 29.67 8.671 30.683 A 1.97 1.97 0 0 0 8.145 31.172 L 7.5 42.656 A 2.338 2.338 0 0 1 6.925 43.086 A 1.905 1.905 0 0 1 6.035 43.301 L 3.867 43.125 L 3.281 43.125 Z M 120 32.168 L 120.293 37.266 A 15.12 15.12 0 0 1 120.186 39.14 Q 119.806 42.171 118.066 42.949 A 2.608 2.608 0 0 1 117.571 43.078 Q 117.285 43.125 116.953 43.125 A 3.536 3.536 0 0 1 116.402 43.079 Q 116.125 43.035 115.814 42.949 A 7.496 7.496 0 0 1 115.43 42.832 L 115.488 20.918 Q 115.488 16.172 114.932 11.397 Q 114.375 6.621 114.375 1.875 A 2.536 2.536 0 0 1 114.477 1.122 Q 114.735 0.294 115.642 0.077 A 3.128 3.128 0 0 1 116.367 0 L 116.836 0 Q 117.246 0 117.363 0.059 Q 118.242 3.692 118.535 8.848 A 685.221 685.221 0 0 0 118.812 13.488 Q 119.295 21.132 119.707 24.199 A 8.959 8.959 0 0 0 120.167 23.934 Q 121.258 23.268 123.726 21.519 A 226.269 226.269 0 0 0 124.16 21.211 Q 127.253 19.01 129.267 17.582 A 1485.119 1485.119 0 0 1 129.727 17.256 A 382.588 382.588 0 0 1 131.777 15.813 A 316.019 316.019 0 0 1 133.711 14.473 Q 138.105 11.602 139.219 11.602 A 1.39 1.39 0 0 1 140.309 12.122 Q 140.488 12.329 140.636 12.618 A 3.425 3.425 0 0 1 140.684 12.715 Q 137.754 16.406 131.25 20.918 A 2679.859 2679.859 0 0 1 126.006 24.522 A 49.074 49.074 0 0 0 122.342 27.285 A 43.285 43.285 0 0 0 121.23 28.242 A 155.603 155.603 0 0 1 126.874 29.869 A 134.809 134.809 0 0 1 128.672 30.44 A 204.082 204.082 0 0 0 133.813 32.038 A 180.876 180.876 0 0 0 135.469 32.52 Q 141.179 34.202 145.686 34.78 A 37.958 37.958 0 0 0 148.477 35.039 Q 148.477 36.473 148.236 36.992 A 0.891 0.891 0 0 1 148.184 37.09 A 1.658 1.658 0 0 1 147.544 37.655 Q 146.967 37.96 146.016 38.028 L 145.547 38.028 Q 142.052 37.054 136.316 35.855 A 291.687 291.687 0 0 0 136.055 35.801 Q 124.395 33.399 120 32.168 Z M 90.996 29.356 L 95.273 28.887 Q 100.382 27.8 103.625 27.721 A 20.416 20.416 0 0 1 104.121 27.715 Q 110.566 27.715 110.566 30.996 A 4.35 4.35 0 0 1 110.163 32.742 Q 109.543 34.155 107.971 35.786 A 22.388 22.388 0 0 1 106.992 36.738 Q 101.66 41.602 92.637 44.531 A 0.529 0.529 0 0 1 92.365 44.447 Q 92.067 44.269 91.729 43.711 A 572.739 572.739 0 0 1 91.494 43.325 Q 91.268 42.951 91.103 42.678 A 139.793 139.793 0 0 1 90.967 42.451 Q 90.703 42.012 90.586 41.895 Q 96.316 40.001 100.309 37.43 A 28.122 28.122 0 0 0 101.66 36.504 Q 104.59 34.395 104.59 33.047 A 0.962 0.962 0 0 0 104.062 32.2 Q 103.239 31.699 101.133 31.699 Q 97.676 31.699 90.996 33.34 A 8.002 8.002 0 0 1 85.723 31.172 A 8.294 8.294 0 0 1 84.745 30.091 Q 83.789 28.808 83.789 27.51 A 5.923 5.923 0 0 1 84.844 24.112 Q 85.898 22.559 87.656 21.211 A 20.696 20.696 0 0 1 89.95 19.693 A 26.304 26.304 0 0 1 91.758 18.75 A 27.199 27.199 0 0 1 103.652 15.996 A 17.31 17.31 0 0 1 107.168 16.348 A 2.389 2.389 0 0 1 107.78 16.42 Q 108.495 16.61 108.734 17.298 A 1.977 1.977 0 0 1 108.809 17.578 Q 109.043 18.809 109.043 21.621 A 17.44 17.44 0 0 0 103.747 20.179 A 21.801 21.801 0 0 0 101.25 20.039 Q 95.859 20.039 92.344 22.207 A 9.596 9.596 0 0 0 90.497 23.573 A 5.858 5.858 0 0 0 88.594 27.715 A 1.547 1.547 0 0 0 88.805 28.545 Q 89.186 29.16 90.25 29.308 A 5.42 5.42 0 0 0 90.996 29.356 Z M 154.16 17.227 L 154.043 2.637 L 158.73 2.813 L 158.203 37.149 L 189.082 38.028 A 2.177 2.177 0 0 1 189.47 38.187 Q 190.02 38.485 190.02 39.024 Q 190.02 39.701 189.204 40.433 A 4.926 4.926 0 0 1 189.141 40.488 A 5.982 5.982 0 0 1 187.203 41.677 A 5.562 5.562 0 0 1 185.273 42.012 A 5.328 5.328 0 0 1 184.556 41.961 A 6.446 6.446 0 0 1 184.16 41.895 L 152.695 41.602 A 24.994 24.994 0 0 0 153.266 38.573 Q 153.959 33.486 154.115 23.454 A 402.581 402.581 0 0 0 154.16 17.227 Z M 56.131 21.878 A 12.714 12.714 0 0 0 51.797 31.699 Q 51.797 35.096 52.697 37.397 A 7.588 7.588 0 0 0 54.639 40.313 A 8.54 8.54 0 0 0 56.848 41.75 Q 58.186 42.362 59.871 42.645 A 19.168 19.168 0 0 0 63.047 42.891 A 26.285 26.285 0 0 0 68.06 42.434 A 18.946 18.946 0 0 0 75.938 39.024 A 13.504 13.504 0 0 0 80.585 32.919 A 15.453 15.453 0 0 0 81.504 27.481 A 3.276 3.276 0 0 0 81.506 27.465 Q 81.548 27.113 81.559 26.399 A 35.362 35.362 0 0 0 81.562 25.869 Q 81.562 25.102 81.245 24.109 A 11.505 11.505 0 0 0 80.859 23.086 A 9.657 9.657 0 0 0 77.586 18.952 A 12.344 12.344 0 0 0 74.297 17.285 A 23.067 23.067 0 0 0 73.886 17.145 Q 72.004 16.524 70.84 16.524 L 69.199 16.524 A 28.636 28.636 0 0 0 65.213 17.221 A 22.194 22.194 0 0 0 57.773 20.567 A 17.196 17.196 0 0 0 56.131 21.878 Z M 43.066 42.891 L 42.598 42.832 A 129.162 129.162 0 0 0 42.587 41.203 Q 42.558 38.965 42.457 36.021 A 377.76 377.76 0 0 0 42.422 35.039 A 917.87 917.87 0 0 1 42.302 31.653 Q 42.258 30.314 42.222 29.095 A 507.852 507.852 0 0 1 42.158 26.778 A 602.181 602.181 0 0 0 42.063 23.35 A 514.483 514.483 0 0 0 41.953 20.098 A 689.153 689.153 0 0 0 41.843 17.28 Q 41.789 15.956 41.734 14.777 A 403.048 403.048 0 0 0 41.719 14.444 Q 41.604 11.998 41.573 10.796 A 51.773 51.773 0 0 1 41.572 10.752 Q 41.545 9.628 40.722 5.452 A 205.345 205.345 0 0 0 40.605 4.863 A 121.241 121.241 0 0 1 41.38 3.842 A 108.099 108.099 0 0 1 41.631 3.516 A 1.618 1.618 0 0 1 42.73 2.894 A 2.402 2.402 0 0 1 43.066 2.871 A 1.079 1.079 0 0 1 43.875 3.612 Q 45.071 5.917 45.878 15.389 A 232.515 232.515 0 0 1 46.23 20.156 A 343.181 343.181 0 0 1 46.816 40.196 A 2.698 2.698 0 0 1 46.528 41.483 Q 45.776 42.891 43.066 42.891 Z M 55.84 33.106 A 10.607 10.607 0 0 0 55.968 34.823 Q 56.113 35.701 56.42 36.382 A 3.794 3.794 0 0 0 57.773 38.028 A 4.502 4.502 0 0 0 58.851 38.512 Q 59.967 38.863 61.66 38.942 A 22.2 22.2 0 0 0 62.695 38.965 Q 66.152 38.965 68.789 38.438 A 14.691 14.691 0 0 0 71.856 37.481 A 12.644 12.644 0 0 0 73.477 36.621 A 9.165 9.165 0 0 0 77.729 29.917 A 13.903 13.903 0 0 0 77.871 27.891 A 10.776 10.776 0 0 0 77.585 25.341 A 7.702 7.702 0 0 0 75.996 22.149 A 6.655 6.655 0 0 0 71.126 19.761 A 8.88 8.88 0 0 0 70.605 19.746 A 210.639 210.639 0 0 0 66.006 20.625 Q 63.691 21.094 61.641 22.442 A 10.842 10.842 0 0 0 58.148 26.215 Q 56.556 28.966 55.84 33.106 Z"/>
  </g>

</svg>
